<?xml version="1.0" encoding="UTF-8" standalone="no"?>
<svg width="37" height="45" viewBox="0 0 37 45" fill="none" xmlns="http://www.w3.org/2000/svg">
<path d="M18.6744 0.5C14.593 0.5 8.95598 1.66306 6.6227 2.63194C4.29044 3.60183 2.73492 4.5707 2.2492 6.99492L0.5 20.4298V38.9416H3.51267V41.8452C3.51267 45.3849 8.70652 45.3849 8.70652 41.8452V38.9416H18.2942H18.3246H28.2935V41.8452C28.2935 45.3849 33.4873 45.3849 33.4873 41.8452V38.9416H36.5V20.4298L34.7508 6.99492C34.2651 4.5707 32.7096 3.60183 30.3773 2.63194C28.044 1.66306 22.407 0.5 18.3246 0.5" fill="white"/>
<path d="M30.737 32.9392C32.1334 32.9392 33.2654 31.8073 33.2654 30.4108C33.2654 29.0143 32.1334 27.8823 30.737 27.8823C29.3405 27.8823 28.2085 29.0143 28.2085 30.4108C28.2085 31.8073 29.3405 32.9392 30.737 32.9392Z" fill="#989898"/>
<path d="M5.59231 32.9392C4.19584 32.9392 3.06384 31.8073 3.06384 30.4108C3.06384 29.0143 4.19584 27.8823 5.59231 27.8823C6.98877 27.8823 8.12077 29.0143 8.12077 30.4108C8.12077 31.8073 6.98877 32.9392 5.59231 32.9392Z" fill="#989898"/>
<path d="M17.9692 5.39991H10.6483C9.1685 5.39991 9.1685 3.18018 10.6483 3.18018H17.9867H25.6812C27.16 3.18018 27.16 5.39991 25.6812 5.39991H17.9692Z" fill="#989898"/>
<path d="M17.9691 7.64014H6.65949C5.09631 7.64014 4.68879 8.43459 4.49841 9.63965L3.11635 19.5549C2.98771 20.5047 3.26248 21.4484 4.57559 21.4484H17.9866H31.7537C33.0658 21.4484 33.3416 20.5047 33.212 19.5549L31.8309 9.63965C31.6405 8.43459 31.232 7.64014 29.6698 7.64014H17.9691Z" fill="#989898"/>
</svg>
