<?xml version="1.0" standalone="no"?>
<!DOCTYPE svg PUBLIC "-//W3C//DTD SVG 20010904//EN"
 "http://www.w3.org/TR/2001/REC-SVG-20010904/DTD/svg10.dtd">
<svg version="1.0" xmlns="http://www.w3.org/2000/svg"
 width="650.000000pt" height="450.000000pt" viewBox="0 0 650.000000 450.000000"
 preserveAspectRatio="xMidYMid meet">

<g transform="translate(0.000000,450.000000) scale(0.100000,-0.100000)"
fill="#ffffff" stroke="none">
<path d="M3746 4398 c-22 -54 -69 -266 -63 -282 10 -25 46 -19 56 8 9 22 36
36 72 36 10 0 18 -15 25 -42 8 -37 13 -43 34 -43 24 0 25 2 23 54 -3 56 -46
249 -63 282 -7 12 -21 19 -41 19 -24 0 -32 -6 -43 -32z m58 -119 c10 -51 7
-59 -18 -59 -22 0 -23 1 -13 45 12 53 22 57 31 14z"/>
<path d="M3945 4388 c-30 -17 -33 -26 -24 -67 5 -20 9 -87 9 -149 0 -122 4
-131 56 -118 31 8 110 80 130 117 8 16 14 48 14 73 0 37 -6 52 -32 82 -30 33
-97 74 -123 73 -5 0 -19 -5 -30 -11z m90 -89 c39 -35 45 -69 19 -109 -18 -27
-44 -50 -55 -50 -4 0 -9 43 -11 95 -2 52 0 95 4 95 4 0 23 -14 43 -31z"/>
<path d="M4176 4358 c-13 -18 -16 -51 -16 -165 0 -90 4 -144 11 -148 23 -15
80 -8 106 11 131 97 96 269 -64 318 -16 5 -25 1 -37 -16z m88 -83 c37 -34 37
-101 0 -144 -14 -17 -30 -31 -35 -31 -5 0 -9 45 -9 100 0 55 4 100 9 100 4 0
20 -11 35 -25z"/>
<path d="M5498 4354 c-21 -9 -39 -23 -42 -32 -3 -10 -8 -67 -12 -128 -6 -105
-5 -113 15 -133 23 -23 61 -27 110 -10 24 8 31 17 31 36 0 25 -2 26 -50 20
-50 -6 -50 -6 -50 23 0 25 5 30 51 45 42 14 50 21 47 38 -3 19 -9 22 -46 21
-42 -1 -43 0 -40 30 3 31 7 33 91 51 21 4 27 11 27 30 0 23 -3 25 -47 24 -27
0 -65 -7 -85 -15z"/>
<path d="M5364 4333 c-17 -74 -36 -149 -41 -157 -3 -4 -19 26 -35 68 -32 82
-54 104 -88 86 -11 -6 -20 -12 -20 -13 0 -1 -11 -56 -24 -121 -13 -66 -22
-126 -19 -133 6 -17 39 -17 50 0 4 6 15 46 24 87 12 52 19 69 24 55 3 -11 16
-45 28 -75 18 -44 27 -56 48 -58 37 -4 54 21 84 125 31 109 31 156 -2 161 -17
3 -24 -3 -29 -25z"/>
<path d="M5671 4351 c-12 -8 -13 -31 -4 -153 12 -160 16 -174 46 -184 15 -5
27 1 44 20 13 15 23 35 23 44 0 9 8 1 18 -18 12 -25 25 -36 45 -38 23 -3 30 2
41 30 18 45 59 266 52 284 -9 22 -45 17 -55 -9 -5 -12 -15 -58 -22 -102 -11
-73 -13 -77 -22 -50 -22 69 -59 75 -86 15 l-18 -40 -6 91 c-7 106 -20 132 -56
110z"/>
<path d="M4686 4328 c-21 -33 -76 -213 -76 -248 0 -52 54 -49 62 3 2 15 15 25
45 33 l42 12 6 -38 c7 -43 31 -59 54 -35 13 13 13 25 -8 117 -23 102 -44 156
-65 170 -21 14 -46 8 -60 -14z m50 -135 c-3 -7 -12 -13 -21 -13 -18 0 -18 -1
-3 40 11 33 11 33 20 10 5 -13 6 -30 4 -37z"/>
<path d="M2127 4014 c-27 -27 20 -77 49 -53 23 19 13 53 -16 57 -14 2 -29 0
-33 -4z"/>
<path d="M5614 3899 c-4 -6 -9 -57 -12 -113 -9 -190 -9 -181 14 -184 30 -4 42
35 50 162 5 71 3 109 -5 124 -13 24 -36 29 -47 11z"/>
<path d="M3761 3855 c-5 -5 -11 -41 -15 -80 -3 -38 -9 -98 -12 -133 -6 -57 -5
-65 16 -87 30 -32 42 -31 117 4 90 43 118 102 62 132 -19 10 -18 12 20 50 46
44 52 76 20 105 -17 16 -37 19 -111 19 -49 0 -93 -4 -97 -10z m155 -64 c-6
-10 -91 -61 -100 -61 -8 0 -7 55 1 63 10 11 105 8 99 -2z m-54 -151 c20 -1 19
-3 -12 -20 -46 -25 -60 -25 -60 3 0 31 9 38 31 27 10 -6 28 -10 41 -10z"/>
<path d="M2926 3837 c-3 -15 -16 -27 -31 -31 -32 -8 -32 -23 0 -38 14 -6 25
-17 25 -24 0 -24 25 -20 54 9 27 26 28 31 14 41 -9 7 -18 23 -20 36 -4 34 -34
38 -42 7z"/>
<path d="M4166 3844 c-3 -9 -6 -30 -6 -47 0 -64 -52 -209 -68 -192 -4 4 -9 59
-12 123 -5 111 -6 117 -27 120 -31 4 -36 -23 -32 -162 3 -95 7 -118 23 -135
41 -45 104 -12 140 74 23 54 49 184 42 210 -7 29 -50 35 -60 9z"/>
<path d="M4363 3840 c-25 -10 -63 -65 -63 -91 0 -8 14 -36 30 -62 17 -26 30
-54 30 -63 0 -8 -20 -23 -45 -34 -33 -14 -45 -25 -45 -40 0 -30 24 -35 76 -15
79 30 98 94 50 164 -34 48 -33 67 3 86 38 19 46 32 31 50 -14 17 -34 18 -67 5z"/>
<path d="M5096 3820 c-63 -75 -38 -279 37 -305 67 -23 146 68 147 168 0 129
-117 216 -184 137z m101 -69 c28 -42 29 -80 3 -130 -23 -47 -46 -58 -60 -30
-31 57 -17 204 18 197 9 -2 27 -18 39 -37z"/>
<path d="M5363 3840 c-12 -5 -24 -17 -27 -27 -14 -48 -37 -236 -34 -279 3 -45
5 -49 28 -49 18 0 26 6 27 20 13 138 13 135 43 135 59 0 132 96 115 150 -17
52 -88 76 -152 50z m85 -73 c4 -21 -34 -67 -55 -67 -11 0 -12 9 -7 38 4 20 9
41 11 45 9 15 48 2 51 -16z"/>
<path d="M4665 3815 c-14 -13 -25 -32 -25 -43 0 -21 48 -100 73 -121 9 -7 17
-19 17 -27 0 -13 -97 -54 -129 -54 -23 0 -35 -28 -20 -46 15 -18 41 -18 105 3
117 36 136 90 64 177 -48 58 -51 76 -11 76 32 0 56 22 47 45 -4 10 -20 15 -51
15 -35 0 -52 -6 -70 -25z"/>
<path d="M4849 3824 c-19 -23 1 -50 36 -47 l27 2 -7 -124 c-8 -136 -3 -165 26
-165 26 0 28 6 36 155 8 123 9 130 30 133 27 4 47 27 39 47 -8 22 -168 22
-187 -1z"/>
<path d="M1959 3618 c-133 -8 -245 -30 -373 -75 -322 -112 -508 -267 -643
-538 -92 -184 -127 -346 -121 -560 6 -168 29 -250 109 -390 151 -263 373 -423
682 -492 37 -8 41 -13 97 -120 l58 -113 -83 0 c-46 0 -90 -3 -99 -6 -19 -7
-20 -34 -5 -87 8 -30 19 -42 57 -61 57 -28 125 -44 211 -50 61 -4 66 -6 93
-42 51 -68 233 -251 299 -299 35 -25 120 -82 189 -124 679 -422 1398 -505
1991 -229 49 22 90 39 92 37 1 -2 28 -33 58 -69 31 -36 59 -75 63 -87 4 -13
15 -23 24 -23 36 0 93 22 113 43 19 19 20 30 15 92 -5 63 -22 143 -39 185 -4
10 8 26 39 49 72 54 182 160 189 181 8 26 32 26 228 -2 157 -23 159 -23 173
-3 34 46 35 83 3 164 -53 132 -140 291 -214 390 -39 53 -105 141 -145 195
l-74 99 33 63 c23 45 63 92 138 166 167 162 180 177 248 278 114 169 205 390
205 495 0 55 -22 85 -64 85 -42 0 -50 -10 -70 -87 -23 -92 -67 -183 -140 -287
-93 -134 -157 -200 -260 -269 -109 -73 -229 -189 -255 -247 -10 -24 -22 -37
-25 -31 -12 19 -125 92 -205 131 -158 80 -500 142 -1036 190 -126 12 -286 32
-355 47 -69 14 -138 28 -153 31 -24 4 -28 8 -23 26 83 289 93 485 34 675 -99
322 -375 583 -679 642 -139 27 -255 35 -380 27z m362 -81 c339 -80 603 -356
675 -704 28 -132 7 -389 -42 -522 -3 -8 -26 34 -53 95 -53 121 -114 225 -173
297 -40 47 -40 48 -34 110 7 82 -9 131 -46 135 -22 3 -33 -5 -57 -38 -16 -23
-38 -61 -47 -86 l-17 -44 -70 0 c-109 0 -309 -28 -442 -62 -138 -35 -239 -81
-344 -156 l-74 -53 -31 30 c-35 34 -57 39 -75 17 -21 -25 -33 -221 -22 -376
14 -197 44 -327 111 -490 17 -40 30 -74 30 -76 0 -7 -143 38 -194 60 -212 94
-416 310 -494 526 -44 121 -55 203 -48 343 14 265 123 538 282 707 127 134
408 264 660 305 136 22 370 13 505 -18z m322 -742 c-5 -60 -5 -60 46 -123 28
-35 68 -93 90 -130 41 -70 131 -265 131 -282 0 -28 -241 -230 -403 -339 -207
-138 -366 -209 -609 -270 -240 -61 -211 -64 -258 28 -74 147 -111 311 -125
548 -7 109 3 283 15 283 4 0 18 -16 31 -35 13 -19 27 -35 30 -35 3 0 33 24 67
53 80 70 221 140 347 172 123 32 375 66 471 64 73 -2 94 3 94 24 0 7 14 41 31
77 26 55 33 62 39 45 4 -11 6 -47 3 -80z m2874 -132 c-6 -72 -37 -162 -92
-273 -79 -157 -153 -255 -312 -410 -103 -102 -157 -162 -178 -201 l-30 -57
-54 48 -54 48 28 48 c41 70 114 138 238 223 116 80 165 128 256 255 77 107
114 174 147 271 41 121 60 138 51 48z m-2457 -468 c115 -27 242 -45 460 -65
490 -44 846 -111 1003 -189 93 -46 230 -146 331 -241 62 -59 286 -345 348
-445 13 -22 50 -96 82 -165 31 -69 61 -132 66 -142 6 -10 5 -28 -3 -47 -13
-36 -17 -37 -155 -17 -53 8 -128 17 -167 20 -113 10 -217 27 -264 43 -29 10
-47 11 -54 4 -18 -18 52 -49 150 -67 l94 -17 -38 -39 c-21 -22 -87 -77 -148
-122 -315 -236 -587 -343 -962 -378 -211 -19 -462 9 -688 77 -248 75 -469 177
-689 316 -263 166 -479 400 -652 705 -41 70 -72 130 -69 132 2 2 52 12 112 22
297 52 551 165 818 364 85 64 254 207 294 250 18 19 30 24 50 20 14 -3 51 -12
81 -19z m-1222 -971 l43 -65 -53 6 c-29 4 -83 15 -120 26 -68 20 -88 37 -88
78 0 20 6 21 88 21 l87 0 43 -66z m2897 -715 c23 -100 21 -116 -21 -137 l-36
-19 -65 69 c-36 38 -62 72 -58 76 4 4 39 28 78 53 52 33 74 43 79 34 4 -7 14
-41 23 -76z"/>
<path d="M2137 3483 c-11 -18 9 -30 83 -48 108 -26 219 -68 318 -120 89 -48
116 -51 110 -13 -4 30 -149 107 -278 149 -98 31 -223 49 -233 32z"/>
<path d="M2712 3208 c-18 -18 -15 -26 19 -70 37 -46 72 -50 77 -7 2 19 -6 34
-33 58 -40 34 -46 36 -63 19z"/>
<path d="M2427 2412 c-32 -35 -14 -72 33 -72 32 0 50 17 50 47 0 40 -55 56
-83 25z"/>
<path d="M2223 2221 c-4 -16 -9 -18 -23 -11 -19 10 -40 -4 -40 -27 0 -19 -27
-16 -38 3 -5 9 -14 14 -21 10 -15 -9 -14 -39 1 -54 17 -17 73 -15 88 3 7 8 20
15 30 15 23 0 53 34 48 57 -5 26 -38 29 -45 4z"/>
<path d="M1778 2218 c-28 -22 -26 -50 4 -67 21 -12 32 -13 45 -5 25 16 29 55
7 71 -22 16 -36 16 -56 1z"/>
<path d="M2576 1592 c-32 -13 -102 -33 -155 -44 -53 -11 -102 -25 -109 -31 -7
-5 -11 -26 -10 -45 5 -76 97 -122 245 -123 87 0 143 18 143 47 0 13 -6 15 -27
8 -16 -4 -73 -8 -128 -8 -124 -1 -178 20 -182 69 -2 30 -1 31 63 43 94 18 225
63 231 79 11 28 -13 29 -71 5z"/>
<path d="M5578 3540 c-18 -15 -21 -22 -12 -36 16 -26 30 -28 53 -5 37 37 0 75
-41 41z"/>
<path d="M3841 3459 c-103 -10 -113 -13 -109 -40 l3 -21 485 -2 c267 -1 587
-8 713 -14 388 -20 675 -31 696 -25 26 7 36 35 17 49 -9 6 -96 14 -218 18
-377 12 -682 26 -838 36 -181 11 -627 11 -749 -1z"/>
<path d="M447 3359 c-13 -15 -16 -29 -12 -51 8 -35 33 -48 50 -25 7 10 17 17
24 17 25 0 23 31 -3 55 -33 30 -37 31 -59 4z"/>
<path d="M6290 3155 c0 -8 -7 -15 -15 -15 -21 0 -19 -13 6 -28 30 -19 51 0 35
33 -12 28 -26 33 -26 10z"/>
<path d="M3474 2929 c-10 -17 23 -46 37 -32 7 7 9 19 6 27 -7 18 -33 21 -43 5z"/>
<path d="M354 1635 c-9 -23 3 -45 24 -45 29 0 48 26 32 45 -7 8 -21 15 -32 15
-10 0 -21 -7 -24 -15z"/>
<path d="M698 1213 c-15 -15 -15 -17 5 -33 18 -15 23 -15 34 -4 11 10 11 18 3
34 -13 23 -19 24 -42 3z"/>
<path d="M1813 553 c-7 -3 -13 -13 -13 -24 0 -14 -7 -19 -25 -19 -30 0 -35
-29 -6 -37 11 -3 21 -15 23 -27 4 -26 31 -28 36 -2 2 11 13 27 24 36 18 14 19
17 4 29 -9 7 -16 19 -16 27 0 16 -11 23 -27 17z"/>
</g>
</svg>
